# xmcd
#
# Track frame offsets:
#	150
#	20884
#	37086
#	58706
#	72176
#	88664
#	106644
#	129279
#	143511
#	159003
#	176070
#	192021
#	233203
#	244891
#
# Disc length: 3526 seconds
#
# Revision: 0
# Processed by: cddbd v1.5.1PL2 Copyright (c) Steve Scherf et al.
# Submitted via: dBpowerAMP V4.0
#
DISCID=b40dc40e
DTITLE=Zach Prather - Tools of the trade
DYEAR=1900
DGENRE=
TTITLE0=I stand accused
TTITLE1=Whats the hitch
TTITLE2=Run back
TTITLE3=Expresswry
TTITLE4=Menphis
TTITLE5=Low rider
TTITLE6=smooth sriling
TTITLE7=What goes up
TTITLE8=Warrior
TTITLE9=Hand in another glove
TTITLE10=waste not want not
TTITLE11=Hobodies home
TTITLE12=Roll with the punch
TTITLE13=Lay your burden down
EXTD=
EXTT0=
EXTT1=
EXTT2=
EXTT3=
EXTT4=
EXTT5=
EXTT6=
EXTT7=
EXTT8=
EXTT9=
EXTT10=
EXTT11=
EXTT12=
EXTT13=
PLAYORDER=
